<svg xmlns="http://www.w3.org/2000/svg" width="1920" height="1080"><path d="M-172,-157L6,-184L252,-230Z" fill="#fafdc8" stroke="#fafdc8" stroke-width="1.51"/><path d="M747,1317L303,1337L987,1322Z" fill="#5a915a" stroke="#5a915a" stroke-width="1.51"/><path d="M252,-230L740,-207L1153,-230Z" fill="#d1ecb1" stroke="#d1ecb1" stroke-width="1.51"/><path d="M987,1322L303,1337L1519,1340Z" fill="#428651" stroke="#428651" stroke-width="1.51"/><path d="M1153,-230L1282,-199L1645,-230Z" fill="#9fce94" stroke="#9fce94" stroke-width="1.51"/><path d="M252,-230L1153,-230L1978,-242Z" fill="#afdba0" stroke="#afdba0" stroke-width="1.51"/><path d="M1153,-230L1645,-230L1978,-242Z" fill="#94bf8b" stroke="#94bf8b" stroke-width="1.51"/><path d="M2056,352L1948,517L2065,573Z" fill="#4a8f55" stroke="#4a8f55" stroke-width="1.51"/><path d="M1733,1320L1519,1340L2082,1308Z" fill="#055e33" stroke="#055e33" stroke-width="1.51"/><path d="M1942,1268L1733,1320L2082,1308Z" fill="#005830" stroke="#005830" stroke-width="1.51"/><path d="M1956,1140L1942,1268L2082,1308Z" fill="#005931" stroke="#005931" stroke-width="1.51"/><path d="M2059,-190L2064,-103L2091,45Z" fill="#80a26f" stroke="#80a26f" stroke-width="1.51"/><path d="M2042,793L1914,999L2130,960Z" fill="#156f3b" stroke="#156f3b" stroke-width="1.51"/><path d="M2065,573L1943,698L2130,705Z" fill="#31824b" stroke="#31824b" stroke-width="1.51"/><path d="M2072,211L2056,352L2130,705Z" fill="#508d56" stroke="#508d56" stroke-width="1.51"/><path d="M2056,352L2065,573L2130,705Z" fill="#408851" stroke="#408851" stroke-width="1.51"/><path d="M2042,793L2130,960L2130,705Z" fill="#1d7340" stroke="#1d7340" stroke-width="1.51"/><path d="M2091,45L2072,211L2130,705Z" fill="#5d925b" stroke="#5d925b" stroke-width="1.51"/><path d="M2130,960L1914,999L2136,1108Z" fill="#0c6536" stroke="#0c6536" stroke-width="1.51"/><path d="M1914,999L1956,1140L2136,1108Z" fill="#076435" stroke="#076435" stroke-width="1.51"/><path d="M1956,1140L2082,1308L2136,1108Z" fill="#005a31" stroke="#005a31" stroke-width="1.51"/><path d="M2130,705L2130,960L2136,1108Z" fill="#146838" stroke="#146838" stroke-width="1.51"/><path d="M740,-207L839,-200L1153,-230Z" fill="#c0e4a8" stroke="#c0e4a8" stroke-width="1.51"/><path d="M1943,698L2042,793L2130,705Z" fill="#257f46" stroke="#257f46" stroke-width="1.51"/><path d="M1645,-230L1796,-186L1978,-242Z" fill="#8bb484" stroke="#8bb484" stroke-width="1.51"/><path d="M1917,787L1914,999L2042,793Z" fill="#1b7840" stroke="#1b7840" stroke-width="1.51"/><path d="M1942,378L1948,517L2056,352Z" fill="#53945a" stroke="#53945a" stroke-width="1.51"/><path d="M1949,235L2056,352L2072,211Z" fill="#659960" stroke="#659960" stroke-width="1.51"/><path d="M1933,78L1949,235L2072,211Z" fill="#6fa065" stroke="#6fa065" stroke-width="1.51"/><path d="M2064,-103L1886,-27L2091,45Z" fill="#7fa56e" stroke="#7fa56e" stroke-width="1.51"/><path d="M1886,-27L1933,78L2091,45Z" fill="#7ca66c" stroke="#7ca66c" stroke-width="1.51"/><path d="M1933,78L2072,211L2091,45Z" fill="#74a067" stroke="#74a067" stroke-width="1.51"/><path d="M1949,235L1942,378L2056,352Z" fill="#60995e" stroke="#60995e" stroke-width="1.51"/><path d="M2059,-190L1978,-242L2064,-103Z" fill="#83a57a" stroke="#83a57a" stroke-width="1.51"/><path d="M1978,-242L1886,-27L2064,-103Z" fill="#84a976" stroke="#84a976" stroke-width="1.51"/><path d="M1948,517L1943,698L2065,573Z" fill="#3b8a50" stroke="#3b8a50" stroke-width="1.51"/><path d="M1943,698L1917,787L2042,793Z" fill="#238046" stroke="#238046" stroke-width="1.51"/><path d="M1785,584L1943,698L1948,517Z" fill="#3c9052" stroke="#3c9052" stroke-width="1.51"/><path d="M1796,-186L1886,-27L1978,-242Z" fill="#87af7c" stroke="#87af7c" stroke-width="1.51"/><path d="M1796,-186L1769,-111L1886,-27Z" fill="#89b279" stroke="#89b279" stroke-width="1.51"/><path d="M1760,807L1806,1023L1914,999Z" fill="#17783e" stroke="#17783e" stroke-width="1.51"/><path d="M1760,807L1914,999L1917,787Z" fill="#1c7e42" stroke="#1c7e42" stroke-width="1.51"/><path d="M1767,237L1748,371L1942,378Z" fill="#63a362" stroke="#63a362" stroke-width="1.51"/><path d="M1942,378L1748,371L1948,517Z" fill="#559b5c" stroke="#559b5c" stroke-width="1.51"/><path d="M1748,371L1785,584L1948,517Z" fill="#4d9a5a" stroke="#4d9a5a" stroke-width="1.51"/><path d="M1933,78L1784,76L1949,235Z" fill="#77a96a" stroke="#77a96a" stroke-width="1.51"/><path d="M1784,76L1767,237L1949,235Z" fill="#73a968" stroke="#73a968" stroke-width="1.51"/><path d="M1767,237L1942,378L1949,235Z" fill="#66a263" stroke="#66a263" stroke-width="1.51"/><path d="M1914,999L1806,1023L1956,1140Z" fill="#0a6d39" stroke="#0a6d39" stroke-width="1.51"/><path d="M1806,1023L1766,1171L1956,1140Z" fill="#066c39" stroke="#066c39" stroke-width="1.51"/><path d="M1766,1171L1942,1268L1956,1140Z" fill="#006336" stroke="#006336" stroke-width="1.51"/><path d="M1785,584L1733,643L1943,698Z" fill="#389251" stroke="#389251" stroke-width="1.51"/><path d="M1760,807L1917,787L1943,698Z" fill="#238648" stroke="#238648" stroke-width="1.51"/><path d="M1733,643L1760,807L1943,698Z" fill="#2d8d4d" stroke="#2d8d4d" stroke-width="1.51"/><path d="M1766,1171L1733,1320L1942,1268Z" fill="#036235" stroke="#036235" stroke-width="1.51"/><path d="M1886,-27L1784,76L1933,78Z" fill="#7dac6f" stroke="#7dac6f" stroke-width="1.51"/><path d="M1769,-111L1784,76L1886,-27Z" fill="#84b173" stroke="#84b173" stroke-width="1.51"/><path d="M1636,377L1616,560L1748,371Z" fill="#5ba560" stroke="#5ba560" stroke-width="1.51"/><path d="M1615,192L1767,237L1784,76Z" fill="#78af6c" stroke="#78af6c" stroke-width="1.51"/><path d="M1769,-111L1662,-44L1784,76Z" fill="#87b575" stroke="#87b575" stroke-width="1.51"/><path d="M1748,371L1616,560L1785,584Z" fill="#4f9f5c" stroke="#4f9f5c" stroke-width="1.51"/><path d="M1635,1130L1766,1171L1806,1023Z" fill="#0e713b" stroke="#0e713b" stroke-width="1.51"/><path d="M1664,935L1635,1130L1806,1023Z" fill="#17783d" stroke="#17783d" stroke-width="1.51"/><path d="M1760,807L1664,935L1806,1023Z" fill="#1d7e41" stroke="#1d7e41" stroke-width="1.51"/><path d="M1602,1294L1519,1340L1733,1320Z" fill="#0f6536" stroke="#0f6536" stroke-width="1.51"/><path d="M1614,67L1615,192L1784,76Z" fill="#80b470" stroke="#80b470" stroke-width="1.51"/><path d="M1645,-230L1769,-111L1796,-186Z" fill="#8db782" stroke="#8db782" stroke-width="1.51"/><path d="M1282,-199L1528,-174L1645,-230Z" fill="#99c68c" stroke="#99c68c" stroke-width="1.51"/><path d="M1627,881L1664,935L1760,807Z" fill="#248545" stroke="#248545" stroke-width="1.51"/><path d="M1733,643L1623,674L1760,807Z" fill="#32924f" stroke="#32924f" stroke-width="1.51"/><path d="M1602,1294L1733,1320L1766,1171Z" fill="#0a6636" stroke="#0a6636" stroke-width="1.51"/><path d="M1636,377L1748,371L1767,237Z" fill="#67a865" stroke="#67a865" stroke-width="1.51"/><path d="M1662,-44L1614,67L1784,76Z" fill="#85b673" stroke="#85b673" stroke-width="1.51"/><path d="M1616,560L1733,643L1785,584Z" fill="#439a56" stroke="#439a56" stroke-width="1.51"/><path d="M1635,1130L1602,1294L1766,1171Z" fill="#0d6d39" stroke="#0d6d39" stroke-width="1.51"/><path d="M1615,192L1636,377L1767,237Z" fill="#6fad68" stroke="#6fad68" stroke-width="1.51"/><path d="M1645,-230L1662,-44L1769,-111Z" fill="#8eb97e" stroke="#8eb97e" stroke-width="1.51"/><path d="M1391,1281L987,1322L1519,1340Z" fill="#207842" stroke="#207842" stroke-width="1.51"/><path d="M1623,674L1627,881L1760,807Z" fill="#2a8e4b" stroke="#2a8e4b" stroke-width="1.51"/><path d="M1616,560L1623,674L1733,643Z" fill="#419a55" stroke="#419a55" stroke-width="1.51"/><path d="M252,-230L485,-193L740,-207Z" fill="#e1f3b7" stroke="#e1f3b7" stroke-width="1.51"/><path d="M427,1313L303,1337L747,1317Z" fill="#689760" stroke="#689760" stroke-width="1.51"/><path d="M1623,674L1540,675L1627,881Z" fill="#31964f" stroke="#31964f" stroke-width="1.51"/><path d="M1540,675L1462,859L1627,881Z" fill="#2f934c" stroke="#2f934c" stroke-width="1.51"/><path d="M1615,192L1538,252L1636,377Z" fill="#72b16a" stroke="#72b16a" stroke-width="1.51"/><path d="M1458,443L1616,560L1636,377Z" fill="#5ba861" stroke="#5ba861" stroke-width="1.51"/><path d="M1480,-9L1614,67L1662,-44Z" fill="#8cbc77" stroke="#8cbc77" stroke-width="1.51"/><path d="M1528,-174L1480,-9L1662,-44Z" fill="#92bf7c" stroke="#92bf7c" stroke-width="1.51"/><path d="M1645,-230L1528,-174L1662,-44Z" fill="#92bd82" stroke="#92bd82" stroke-width="1.51"/><path d="M1537,982L1635,1130L1664,935Z" fill="#1c7d40" stroke="#1c7d40" stroke-width="1.51"/><path d="M1627,881L1537,982L1664,935Z" fill="#228343" stroke="#228343" stroke-width="1.51"/><path d="M1616,560L1540,675L1623,674Z" fill="#429d57" stroke="#429d57" stroke-width="1.51"/><path d="M1480,1090L1602,1294L1635,1130Z" fill="#13743c" stroke="#13743c" stroke-width="1.51"/><path d="M1537,982L1480,1090L1635,1130Z" fill="#1c7c40" stroke="#1c7c40" stroke-width="1.51"/><path d="M1614,67L1456,114L1615,192Z" fill="#83b971" stroke="#83b971" stroke-width="1.51"/><path d="M1538,252L1458,443L1636,377Z" fill="#6aaf67" stroke="#6aaf67" stroke-width="1.51"/><path d="M1480,1090L1519,1340L1602,1294Z" fill="#15703b" stroke="#15703b" stroke-width="1.51"/><path d="M1458,443L1448,568L1616,560Z" fill="#55a960" stroke="#55a960" stroke-width="1.51"/><path d="M1462,859L1537,982L1627,881Z" fill="#288947" stroke="#288947" stroke-width="1.51"/><path d="M1480,1090L1391,1281L1519,1340Z" fill="#19743e" stroke="#19743e" stroke-width="1.51"/><path d="M1456,114L1538,252L1615,192Z" fill="#7eb870" stroke="#7eb870" stroke-width="1.51"/><path d="M1448,568L1540,675L1616,560Z" fill="#49a25b" stroke="#49a25b" stroke-width="1.51"/><path d="M1480,-9L1456,114L1614,67Z" fill="#8bbe77" stroke="#8bbe77" stroke-width="1.51"/><path d="M1189,1238L987,1322L1391,1281Z" fill="#2b8049" stroke="#2b8049" stroke-width="1.51"/><path d="M1388,-84L1480,-9L1528,-174Z" fill="#97c681" stroke="#97c681" stroke-width="1.51"/><path d="M1365,197L1458,443L1538,252Z" fill="#76b96e" stroke="#76b96e" stroke-width="1.51"/><path d="M1456,114L1365,197L1538,252Z" fill="#82be73" stroke="#82be73" stroke-width="1.51"/><path d="M1353,701L1462,859L1540,675Z" fill="#389e54" stroke="#389e54" stroke-width="1.51"/><path d="M1448,568L1353,701L1540,675Z" fill="#47a55b" stroke="#47a55b" stroke-width="1.51"/><path d="M1304,983L1480,1090L1537,982Z" fill="#258746" stroke="#258746" stroke-width="1.51"/><path d="M1462,859L1304,983L1537,982Z" fill="#2b8d49" stroke="#2b8d49" stroke-width="1.51"/><path d="M1282,-199L1388,-84L1528,-174Z" fill="#9ccb8b" stroke="#9ccb8b" stroke-width="1.51"/><path d="M1365,197L1289,423L1458,443Z" fill="#73bb6f" stroke="#73bb6f" stroke-width="1.51"/><path d="M1312,1167L1391,1281L1480,1090Z" fill="#1e7e43" stroke="#1e7e43" stroke-width="1.51"/><path d="M1353,701L1307,805L1462,859Z" fill="#399f55" stroke="#399f55" stroke-width="1.51"/><path d="M1304,983L1312,1167L1480,1090Z" fill="#258848" stroke="#258848" stroke-width="1.51"/><path d="M1301,106L1456,114L1480,-9Z" fill="#8fc57b" stroke="#8fc57b" stroke-width="1.51"/><path d="M1388,-84L1301,106L1480,-9Z" fill="#95c880" stroke="#95c880" stroke-width="1.51"/><path d="M1306,559L1448,568L1458,443Z" fill="#59b065" stroke="#59b065" stroke-width="1.51"/><path d="M1289,423L1306,559L1458,443Z" fill="#63b66a" stroke="#63b66a" stroke-width="1.51"/><path d="M1307,805L1304,983L1462,859Z" fill="#329750" stroke="#329750" stroke-width="1.51"/><path d="M1306,559L1353,701L1448,568Z" fill="#50ad61" stroke="#50ad61" stroke-width="1.51"/><path d="M1301,106L1365,197L1456,114Z" fill="#8bc579" stroke="#8bc579" stroke-width="1.51"/><path d="M1201,231L1210,392L1289,423Z" fill="#7bc475" stroke="#7bc475" stroke-width="1.51"/><path d="M1238,857L1304,983L1307,805Z" fill="#379c53" stroke="#379c53" stroke-width="1.51"/><path d="M1201,231L1289,423L1365,197Z" fill="#7fc576" stroke="#7fc576" stroke-width="1.51"/><path d="M1211,-62L1301,106L1388,-84Z" fill="#9acf84" stroke="#9acf84" stroke-width="1.51"/><path d="M1312,1167L1232,1191L1391,1281Z" fill="#228145" stroke="#228145" stroke-width="1.51"/><path d="M1232,1191L1189,1238L1391,1281Z" fill="#238147" stroke="#238147" stroke-width="1.51"/><path d="M1282,-199L1211,-62L1388,-84Z" fill="#a1d28c" stroke="#a1d28c" stroke-width="1.51"/><path d="M1238,857L1226,934L1304,983Z" fill="#359a51" stroke="#359a51" stroke-width="1.51"/><path d="M1301,106L1201,231L1365,197Z" fill="#8bc97b" stroke="#8bc97b" stroke-width="1.51"/><path d="M1304,983L1232,1191L1312,1167Z" fill="#278a4a" stroke="#278a4a" stroke-width="1.51"/><path d="M1131,718L1307,805L1353,701Z" fill="#42ab5d" stroke="#42ab5d" stroke-width="1.51"/><path d="M1306,559L1131,718L1353,701Z" fill="#4eb163" stroke="#4eb163" stroke-width="1.51"/><path d="M1211,-62L1184,120L1301,106Z" fill="#9ad185" stroke="#9ad185" stroke-width="1.51"/><path d="M1184,120L1201,231L1301,106Z" fill="#92ce7f" stroke="#92ce7f" stroke-width="1.51"/><path d="M1073,1099L1232,1191L1304,983Z" fill="#30904e" stroke="#30904e" stroke-width="1.51"/><path d="M1226,934L1073,1099L1304,983Z" fill="#369651" stroke="#369651" stroke-width="1.51"/><path d="M1193,487L1131,718L1306,559Z" fill="#5cb76a" stroke="#5cb76a" stroke-width="1.51"/><path d="M1289,423L1193,487L1306,559Z" fill="#65bb6d" stroke="#65bb6d" stroke-width="1.51"/><path d="M1131,718L1238,857L1307,805Z" fill="#41a85b" stroke="#41a85b" stroke-width="1.51"/><path d="M1153,-230L1211,-62L1282,-199Z" fill="#a7d695" stroke="#a7d695" stroke-width="1.51"/><path d="M1210,392L1193,487L1289,423Z" fill="#70c072" stroke="#70c072" stroke-width="1.51"/><path d="M839,-200L1049,-175L1153,-230Z" fill="#b7e0a3" stroke="#b7e0a3" stroke-width="1.51"/><path d="M1079,499L1131,718L1193,487Z" fill="#66bc6f" stroke="#66bc6f" stroke-width="1.51"/><path d="M1201,231L1069,279L1210,392Z" fill="#87ca7b" stroke="#87ca7b" stroke-width="1.51"/><path d="M1080,-54L1184,120L1211,-62Z" fill="#a3d68a" stroke="#a3d68a" stroke-width="1.51"/><path d="M1153,-230L1080,-54L1211,-62Z" fill="#abd993" stroke="#abd993" stroke-width="1.51"/><path d="M1061,943L1073,1099L1226,934Z" fill="#3f9b55" stroke="#3f9b55" stroke-width="1.51"/><path d="M1073,1099L1189,1238L1232,1191Z" fill="#308c4d" stroke="#308c4d" stroke-width="1.51"/><path d="M1131,718L1008,817L1238,857Z" fill="#4bac5f" stroke="#4bac5f" stroke-width="1.51"/><path d="M1008,817L1061,943L1238,857Z" fill="#48a65c" stroke="#48a65c" stroke-width="1.51"/><path d="M1061,943L1226,934L1238,857Z" fill="#3e9f56" stroke="#3e9f56" stroke-width="1.51"/><path d="M1049,-175L1080,-54L1153,-230Z" fill="#b0dc9a" stroke="#b0dc9a" stroke-width="1.51"/><path d="M1079,499L1193,487L1210,392Z" fill="#72c273" stroke="#72c273" stroke-width="1.51"/><path d="M1027,368L1079,499L1210,392Z" fill="#7cc678" stroke="#7cc678" stroke-width="1.51"/><path d="M1069,279L1027,368L1210,392Z" fill="#86cb7c" stroke="#86cb7c" stroke-width="1.51"/><path d="M1184,120L1069,279L1201,231Z" fill="#92cf81" stroke="#92cf81" stroke-width="1.51"/><path d="M1080,-54L983,48L1184,120Z" fill="#a7d88c" stroke="#a7d88c" stroke-width="1.51"/><path d="M1073,1099L987,1322L1189,1238Z" fill="#378b4f" stroke="#378b4f" stroke-width="1.51"/><path d="M983,48L1069,279L1184,120Z" fill="#9ed587" stroke="#9ed587" stroke-width="1.51"/><path d="M940,708L987,741L1079,499Z" fill="#67bd6f" stroke="#67bd6f" stroke-width="1.51"/><path d="M916,572L940,708L1079,499Z" fill="#70c174" stroke="#70c174" stroke-width="1.51"/><path d="M1079,499L987,741L1131,718Z" fill="#61b96c" stroke="#61b96c" stroke-width="1.51"/><path d="M987,741L1008,817L1131,718Z" fill="#56b466" stroke="#56b466" stroke-width="1.51"/><path d="M983,48L877,240L1069,279Z" fill="#a2d88a" stroke="#a2d88a" stroke-width="1.51"/><path d="M884,1256L987,1322L1073,1099Z" fill="#408e53" stroke="#408e53" stroke-width="1.51"/><path d="M850,1135L884,1256L1073,1099Z" fill="#479658" stroke="#479658" stroke-width="1.51"/><path d="M1061,943L861,984L1073,1099Z" fill="#4a9f5a" stroke="#4a9f5a" stroke-width="1.51"/><path d="M1027,368L908,386L1079,499Z" fill="#84cb7d" stroke="#84cb7d" stroke-width="1.51"/><path d="M908,386L916,572L1079,499Z" fill="#7fc97b" stroke="#7fc97b" stroke-width="1.51"/><path d="M1049,-175L869,-56L1080,-54Z" fill="#b6df98" stroke="#b6df98" stroke-width="1.51"/><path d="M869,-56L983,48L1080,-54Z" fill="#b3df95" stroke="#b3df95" stroke-width="1.51"/><path d="M861,984L850,1135L1073,1099Z" fill="#4d9d5b" stroke="#4d9d5b" stroke-width="1.51"/><path d="M877,240L1027,368L1069,279Z" fill="#95d284" stroke="#95d284" stroke-width="1.51"/><path d="M1008,817L861,984L1061,943Z" fill="#51a75f" stroke="#51a75f" stroke-width="1.51"/><path d="M920,802L861,984L1008,817Z" fill="#59ae64" stroke="#59ae64" stroke-width="1.51"/><path d="M877,240L908,386L1027,368Z" fill="#95d384" stroke="#95d384" stroke-width="1.51"/><path d="M839,-200L869,-56L1049,-175Z" fill="#bee3a1" stroke="#bee3a1" stroke-width="1.51"/><path d="M829,74L877,240L983,48Z" fill="#b0de90" stroke="#b0de90" stroke-width="1.51"/><path d="M884,1256L747,1317L987,1322Z" fill="#498c55" stroke="#498c55" stroke-width="1.51"/><path d="M987,741L920,802L1008,817Z" fill="#5ab468" stroke="#5ab468" stroke-width="1.51"/><path d="M940,708L920,802L987,741Z" fill="#5fb86b" stroke="#5fb86b" stroke-width="1.51"/><path d="M869,-56L829,74L983,48Z" fill="#b7e196" stroke="#b7e196" stroke-width="1.51"/><path d="M908,386L722,532L916,572Z" fill="#88cd7f" stroke="#88cd7f" stroke-width="1.51"/><path d="M720,892L861,984L920,802Z" fill="#61af65" stroke="#61af65" stroke-width="1.51"/><path d="M716,644L920,802L940,708Z" fill="#6bbf70" stroke="#6bbf70" stroke-width="1.51"/><path d="M916,572L716,644L940,708Z" fill="#76c475" stroke="#76c475" stroke-width="1.51"/><path d="M829,74L764,114L877,240Z" fill="#b4e091" stroke="#b4e091" stroke-width="1.51"/><path d="M764,114L764,209L877,240Z" fill="#b1de90" stroke="#b1de90" stroke-width="1.51"/><path d="M877,240L706,384L908,386Z" fill="#9ed788" stroke="#9ed788" stroke-width="1.51"/><path d="M706,384L722,532L908,386Z" fill="#97d385" stroke="#97d385" stroke-width="1.51"/><path d="M716,644L720,892L920,802Z" fill="#6dbc6f" stroke="#6dbc6f" stroke-width="1.51"/><path d="M722,532L716,644L916,572Z" fill="#82ca7c" stroke="#82ca7c" stroke-width="1.51"/><path d="M563,1273L427,1313L747,1317Z" fill="#62965e" stroke="#62965e" stroke-width="1.51"/><path d="M724,962L850,1135L861,984Z" fill="#5ba560" stroke="#5ba560" stroke-width="1.51"/><path d="M720,892L724,962L861,984Z" fill="#63ac64" stroke="#63ac64" stroke-width="1.51"/><path d="M839,-200L740,-207L869,-56Z" fill="#c7e7a6" stroke="#c7e7a6" stroke-width="1.51"/><path d="M740,-207L679,-90L869,-56Z" fill="#cae9a4" stroke="#cae9a4" stroke-width="1.51"/><path d="M764,209L706,384L877,240Z" fill="#a9db8c" stroke="#a9db8c" stroke-width="1.51"/><path d="M850,1135L769,1165L884,1256Z" fill="#50985a" stroke="#50985a" stroke-width="1.51"/><path d="M769,1165L747,1317L884,1256Z" fill="#529359" stroke="#529359" stroke-width="1.51"/><path d="M724,962L769,1165L850,1135Z" fill="#5aa25f" stroke="#5aa25f" stroke-width="1.51"/><path d="M716,644L639,839L720,892Z" fill="#75be71" stroke="#75be71" stroke-width="1.51"/><path d="M679,-90L829,74L869,-56Z" fill="#c3e69c" stroke="#c3e69c" stroke-width="1.51"/><path d="M679,-90L764,114L829,74Z" fill="#c2e69a" stroke="#c2e69a" stroke-width="1.51"/><path d="M485,-193L616,-163L740,-207Z" fill="#d8efb0" stroke="#d8efb0" stroke-width="1.51"/><path d="M161,1288L-152,1266L303,1337Z" fill="#7fa26e" stroke="#7fa26e" stroke-width="1.51"/><path d="M596,693L639,839L716,644Z" fill="#7ec677" stroke="#7ec677" stroke-width="1.51"/><path d="M589,999L623,1164L724,962Z" fill="#69aa65" stroke="#69aa65" stroke-width="1.51"/><path d="M639,296L706,384L764,209Z" fill="#aedd8e" stroke="#aedd8e" stroke-width="1.51"/><path d="M679,-90L533,60L764,114Z" fill="#caea9e" stroke="#caea9e" stroke-width="1.51"/><path d="M639,296L764,209L764,114Z" fill="#b5e192" stroke="#b5e192" stroke-width="1.51"/><path d="M533,60L639,296L764,114Z" fill="#c1e697" stroke="#c1e697" stroke-width="1.51"/><path d="M623,1164L747,1317L769,1165Z" fill="#5a9a5d" stroke="#5a9a5d" stroke-width="1.51"/><path d="M724,962L623,1164L769,1165Z" fill="#60a462" stroke="#60a462" stroke-width="1.51"/><path d="M623,1164L563,1273L747,1317Z" fill="#5f995e" stroke="#5f995e" stroke-width="1.51"/><path d="M616,-163L679,-90L740,-207Z" fill="#d2edab" stroke="#d2edab" stroke-width="1.51"/><path d="M706,384L560,531L722,532Z" fill="#9ad586" stroke="#9ad586" stroke-width="1.51"/><path d="M540,416L560,531L706,384Z" fill="#a4d98a" stroke="#a4d98a" stroke-width="1.51"/><path d="M560,531L596,693L716,644Z" fill="#8ccd7f" stroke="#8ccd7f" stroke-width="1.51"/><path d="M639,839L589,999L720,892Z" fill="#70b56b" stroke="#70b56b" stroke-width="1.51"/><path d="M560,531L716,644L722,532Z" fill="#8fd081" stroke="#8fd081" stroke-width="1.51"/><path d="M720,892L589,999L724,962Z" fill="#6baf67" stroke="#6baf67" stroke-width="1.51"/><path d="M534,-69L533,60L679,-90Z" fill="#d5eea3" stroke="#d5eea3" stroke-width="1.51"/><path d="M639,296L540,416L706,384Z" fill="#acdc8d" stroke="#acdc8d" stroke-width="1.51"/><path d="M533,60L427,235L639,296Z" fill="#c5e899" stroke="#c5e899" stroke-width="1.51"/><path d="M616,-163L534,-69L679,-90Z" fill="#d6eea8" stroke="#d6eea8" stroke-width="1.51"/><path d="M589,999L459,1188L623,1164Z" fill="#6ba865" stroke="#6ba865" stroke-width="1.51"/><path d="M427,235L540,416L639,296Z" fill="#b8e293" stroke="#b8e293" stroke-width="1.51"/><path d="M596,693L431,809L639,839Z" fill="#80c476" stroke="#80c476" stroke-width="1.51"/><path d="M431,809L589,999L639,839Z" fill="#7aba70" stroke="#7aba70" stroke-width="1.51"/><path d="M427,235L409,349L540,416Z" fill="#bce495" stroke="#bce495" stroke-width="1.51"/><path d="M431,809L386,934L589,999Z" fill="#7eb970" stroke="#7eb970" stroke-width="1.51"/><path d="M459,1188L563,1273L623,1164Z" fill="#689f63" stroke="#689f63" stroke-width="1.51"/><path d="M560,531L421,636L596,693Z" fill="#94d182" stroke="#94d182" stroke-width="1.51"/><path d="M485,-193L534,-69L616,-163Z" fill="#dcf1ae" stroke="#dcf1ae" stroke-width="1.51"/><path d="M404,129L427,235L533,60Z" fill="#d1ed9f" stroke="#d1ed9f" stroke-width="1.51"/><path d="M386,934L459,1188L589,999Z" fill="#76af6b" stroke="#76af6b" stroke-width="1.51"/><path d="M421,636L431,809L596,693Z" fill="#8ccc7d" stroke="#8ccc7d" stroke-width="1.51"/><path d="M485,-193L466,-102L534,-69Z" fill="#dff2ad" stroke="#dff2ad" stroke-width="1.51"/><path d="M540,416L445,515L560,531Z" fill="#a4d98b" stroke="#a4d98b" stroke-width="1.51"/><path d="M445,515L421,636L560,531Z" fill="#9fd688" stroke="#9fd688" stroke-width="1.51"/><path d="M459,1188L427,1313L563,1273Z" fill="#6b9d62" stroke="#6b9d62" stroke-width="1.51"/><path d="M466,-102L404,129L533,60Z" fill="#d8f0a4" stroke="#d8f0a4" stroke-width="1.51"/><path d="M466,-102L533,60L534,-69Z" fill="#daf0a6" stroke="#daf0a6" stroke-width="1.51"/><path d="M409,349L445,515L540,416Z" fill="#b0de90" stroke="#b0de90" stroke-width="1.51"/><path d="M409,349L339,503L445,515Z" fill="#b1df91" stroke="#b1df91" stroke-width="1.51"/><path d="M386,934L257,1038L459,1188Z" fill="#7db26d" stroke="#7db26d" stroke-width="1.51"/><path d="M292,-32L404,129L466,-102Z" fill="#e1f3a9" stroke="#e1f3a9" stroke-width="1.51"/><path d="M252,-230L466,-102L485,-193Z" fill="#e7f5b7" stroke="#e7f5b7" stroke-width="1.51"/><path d="M421,636L275,690L431,809Z" fill="#95d081" stroke="#95d081" stroke-width="1.51"/><path d="M257,1038L229,1088L459,1188Z" fill="#7daf6e" stroke="#7daf6e" stroke-width="1.51"/><path d="M252,-230L292,-32L466,-102Z" fill="#eaf7b3" stroke="#eaf7b3" stroke-width="1.51"/><path d="M275,690L312,824L431,809Z" fill="#91cc7e" stroke="#91cc7e" stroke-width="1.51"/><path d="M339,503L421,636L445,515Z" fill="#a5d98b" stroke="#a5d98b" stroke-width="1.51"/><path d="M303,1337L427,1313L459,1188Z" fill="#709e65" stroke="#709e65" stroke-width="1.51"/><path d="M229,1088L303,1337L459,1188Z" fill="#77a66a" stroke="#77a66a" stroke-width="1.51"/><path d="M303,290L409,349L427,235Z" fill="#c6e89a" stroke="#c6e89a" stroke-width="1.51"/><path d="M312,824L386,934L431,809Z" fill="#89c277" stroke="#89c277" stroke-width="1.51"/><path d="M276,118L303,290L404,129Z" fill="#d5eea1" stroke="#d5eea1" stroke-width="1.51"/><path d="M292,-32L276,118L404,129Z" fill="#dff2a7" stroke="#dff2a7" stroke-width="1.51"/><path d="M275,343L339,503L409,349Z" fill="#bce495" stroke="#bce495" stroke-width="1.51"/><path d="M404,129L303,290L427,235Z" fill="#ceec9e" stroke="#ceec9e" stroke-width="1.51"/><path d="M6,-184L78,-179L252,-230Z" fill="#f7fcc4" stroke="#f7fcc4" stroke-width="1.51"/><path d="M339,503L275,690L421,636Z" fill="#a3d789" stroke="#a3d789" stroke-width="1.51"/><path d="M303,290L275,343L409,349Z" fill="#c5e89a" stroke="#c5e89a" stroke-width="1.51"/><path d="M229,1088L158,1152L303,1337Z" fill="#7da96e" stroke="#7da96e" stroke-width="1.51"/><path d="M158,1152L161,1288L303,1337Z" fill="#7ba46c" stroke="#7ba46c" stroke-width="1.51"/><path d="M312,824L257,1038L386,934Z" fill="#87bc74" stroke="#87bc74" stroke-width="1.51"/><path d="M252,-230L159,-76L292,-32Z" fill="#eff9b6" stroke="#eff9b6" stroke-width="1.51"/><path d="M174,996L257,1038L312,824Z" fill="#89bc75" stroke="#89bc75" stroke-width="1.51"/><path d="M275,343L158,381L339,503Z" fill="#bfe598" stroke="#bfe598" stroke-width="1.51"/><path d="M158,381L135,557L339,503Z" fill="#b9e296" stroke="#b9e296" stroke-width="1.51"/><path d="M135,557L275,690L339,503Z" fill="#aada8f" stroke="#aada8f" stroke-width="1.51"/><path d="M95,68L276,118L292,-32Z" fill="#e5f5ac" stroke="#e5f5ac" stroke-width="1.51"/><path d="M276,118L140,282L303,290Z" fill="#d4eea2" stroke="#d4eea2" stroke-width="1.51"/><path d="M184,720L86,842L312,824Z" fill="#97cd82" stroke="#97cd82" stroke-width="1.51"/><path d="M86,842L174,996L312,824Z" fill="#91c37b" stroke="#91c37b" stroke-width="1.51"/><path d="M275,690L184,720L312,824Z" fill="#97d083" stroke="#97d083" stroke-width="1.51"/><path d="M159,-76L95,68L292,-32Z" fill="#ecf8b1" stroke="#ecf8b1" stroke-width="1.51"/><path d="M140,282L275,343L303,290Z" fill="#cceb9e" stroke="#cceb9e" stroke-width="1.51"/><path d="M-30,1235L-152,1266L161,1288Z" fill="#83a775" stroke="#83a775" stroke-width="1.51"/><path d="M135,557L184,720L275,690Z" fill="#a5d78b" stroke="#a5d78b" stroke-width="1.51"/><path d="M140,282L158,381L275,343Z" fill="#ccea9e" stroke="#ccea9e" stroke-width="1.51"/><path d="M95,68L140,282L276,118Z" fill="#e0f3a8" stroke="#e0f3a8" stroke-width="1.51"/><path d="M78,-179L159,-76L252,-230Z" fill="#f4fbbe" stroke="#f4fbbe" stroke-width="1.51"/><path d="M174,996L229,1088L257,1038Z" fill="#85b673" stroke="#85b673" stroke-width="1.51"/><path d="M174,996L158,1152L229,1088Z" fill="#85b473" stroke="#85b473" stroke-width="1.51"/><path d="M95,68L-6,217L140,282Z" fill="#e1f3aa" stroke="#e1f3aa" stroke-width="1.51"/><path d="M23,500L135,557L158,381Z" fill="#bee49a" stroke="#bee49a" stroke-width="1.51"/><path d="M36,-6L95,68L159,-76Z" fill="#f0fab3" stroke="#f0fab3" stroke-width="1.51"/><path d="M-54,1021L158,1152L174,996Z" fill="#8bb777" stroke="#8bb777" stroke-width="1.51"/><path d="M135,557L-18,745L184,720Z" fill="#a8d78e" stroke="#a8d78e" stroke-width="1.51"/><path d="M-18,745L86,842L184,720Z" fill="#9fd187" stroke="#9fd187" stroke-width="1.51"/><path d="M158,1152L-30,1235L161,1288Z" fill="#82a970" stroke="#82a970" stroke-width="1.51"/><path d="M86,842L-54,1021L174,996Z" fill="#92bf7b" stroke="#92bf7b" stroke-width="1.51"/><path d="M-56,894L-54,1021L86,842Z" fill="#96c383" stroke="#96c383" stroke-width="1.51"/><path d="M140,282L-42,368L158,381Z" fill="#d0eca2" stroke="#d0eca2" stroke-width="1.51"/><path d="M-54,1021L-67,1182L158,1152Z" fill="#89b379" stroke="#89b379" stroke-width="1.51"/><path d="M-42,368L23,500L158,381Z" fill="#c8e8a0" stroke="#c8e8a0" stroke-width="1.51"/><path d="M78,-179L36,-6L159,-76Z" fill="#f6fcb9" stroke="#f6fcb9" stroke-width="1.51"/><path d="M-67,1182L-30,1235L158,1152Z" fill="#86ad76" stroke="#86ad76" stroke-width="1.51"/><path d="M-17,98L-6,217L95,68Z" fill="#e9f6b0" stroke="#e9f6b0" stroke-width="1.51"/><path d="M23,500L-18,745L135,557Z" fill="#b2dd95" stroke="#b2dd95" stroke-width="1.51"/><path d="M-6,217L-42,368L140,282Z" fill="#d8efa8" stroke="#d8efa8" stroke-width="1.51"/><path d="M6,-184L36,-6L78,-179Z" fill="#f9fcbf" stroke="#f9fcbf" stroke-width="1.51"/><path d="M36,-6L-17,98L95,68Z" fill="#eef8b3" stroke="#eef8b3" stroke-width="1.51"/><path d="M-18,745L-56,894L86,842Z" fill="#9ccd88" stroke="#9ccd88" stroke-width="1.51"/><path d="M-171,701L-18,745L23,500Z" fill="#aedb99" stroke="#aedb99" stroke-width="1.51"/><path d="M-111,261L-42,368L-6,217Z" fill="#d9f0ae" stroke="#d9f0ae" stroke-width="1.51"/><path d="M-172,-157L-126,-9L6,-184Z" fill="#fbfdc9" stroke="#fbfdc9" stroke-width="1.51"/><path d="M-172,523L-171,701L23,500Z" fill="#b7e0a2" stroke="#b7e0a2" stroke-width="1.51"/><path d="M6,-184L-126,-9L36,-6Z" fill="#f8fcbf" stroke="#f8fcbf" stroke-width="1.51"/><path d="M-126,-9L-17,98L36,-6Z" fill="#f1faba" stroke="#f1faba" stroke-width="1.51"/><path d="M-42,368L-172,523L23,500Z" fill="#c4e6a5" stroke="#c4e6a5" stroke-width="1.51"/><path d="M-56,894L-109,955L-54,1021Z" fill="#94bf85" stroke="#94bf85" stroke-width="1.51"/><path d="M-17,98L-111,261L-6,217Z" fill="#e3f4b2" stroke="#e3f4b2" stroke-width="1.51"/><path d="M-179,836L-56,894L-18,745Z" fill="#9ecd8f" stroke="#9ecd8f" stroke-width="1.51"/><path d="M-163,87L-111,261L-17,98Z" fill="#e9f6b8" stroke="#e9f6b8" stroke-width="1.51"/><path d="M-201,1098L-67,1182L-54,1021Z" fill="#8cb682" stroke="#8cb682" stroke-width="1.51"/><path d="M-202,408L-172,523L-42,368Z" fill="#c9e8ac" stroke="#c9e8ac" stroke-width="1.51"/><path d="M-171,701L-179,836L-18,745Z" fill="#a3d396" stroke="#a3d396" stroke-width="1.51"/><path d="M-126,-9L-163,87L-17,98Z" fill="#f0f9bd" stroke="#f0f9bd" stroke-width="1.51"/><path d="M-67,1182L-152,1266L-30,1235Z" fill="#85aa7c" stroke="#85aa7c" stroke-width="1.51"/><path d="M-111,261L-202,408L-42,368Z" fill="#d3edb0" stroke="#d3edb0" stroke-width="1.51"/><path d="M-109,955L-201,1098L-54,1021Z" fill="#91bb86" stroke="#91bb86" stroke-width="1.51"/><path d="M-179,836L-109,955L-56,894Z" fill="#99c68c" stroke="#99c68c" stroke-width="1.51"/><path d="M-201,1098L-152,1266L-67,1182Z" fill="#88af81" stroke="#88af81" stroke-width="1.51"/><path d="M-163,87L-202,408L-111,261Z" fill="#def2b7" stroke="#def2b7" stroke-width="1.51"/><path d="M-179,836L-201,1098L-109,955Z" fill="#95c08b" stroke="#95c08b" stroke-width="1.51"/><path d="M-172,-157L-163,87L-126,-9Z" fill="#f6fcc6" stroke="#f6fcc6" stroke-width="1.51"/><path d="M-172,-157L-202,408L-163,87Z" fill="#edf8c0" stroke="#edf8c0" stroke-width="1.51"/><path d="M-172,523L-202,408L-171,701Z" fill="#bce2a9" stroke="#bce2a9" stroke-width="1.51"/><path d="M-202,408L-179,836L-171,701Z" fill="#b0dba2" stroke="#b0dba2" stroke-width="1.51"/><path d="M-202,408L-201,1098L-179,836Z" fill="#a2d29a" stroke="#a2d29a" stroke-width="1.51"/></svg>