<?xml version="1.0" encoding="UTF-8" standalone="no"?>
<svg
   height="24px"
   viewBox="0 -960 960 960"
   width="24px"
   version="1.1"
   xmlns:inkscape="http://www.inkscape.org/namespaces/inkscape"
   xmlns:sodipodi="http://sodipodi.sourceforge.net/DTD/sodipodi-0.dtd"
   xmlns="http://www.w3.org/2000/svg"
   xmlns:svg="http://www.w3.org/2000/svg">
  <style>
      path {
        fill: #000000;
      }
      @media (prefers-color-scheme: dark) {
        path {
          fill: #E9ECEF;
        }
      }
    </style>
  <path
     d="m 479.99999,-351.08702 165.74528,-165.74528 -52.486,-51.56521 -113.25928,113.25928 -113.25926,-113.25928 -52.48602,51.56521 z m 0,239.40983 q -76.42698,0 -143.6459,-29.00543 -67.21892,-29.00541 -116.94249,-78.729 -49.7236,-49.72358 -78.72901,-116.94249 -29.00541,-67.21891 -29.00541,-143.6459 0,-76.42698 29.00541,-143.6459 29.00541,-67.21893 78.72901,-116.94249 49.72357,-49.72361 116.94249,-78.72901 67.21892,-29.00541 143.6459,-29.00541 76.427,0 143.64591,29.00541 67.21891,29.0054 116.9425,78.72901 49.72359,49.72356 78.729,116.94249 29.00542,67.21891 29.00542,143.6459 0,76.42699 -29.00542,143.64591 -29.00541,67.21891 -78.729,116.94249 -49.72359,49.72359 -116.9425,78.729 -67.21891,29.00543 -143.64591,29.00542 z m 0,-73.66457 q 123.38814,0 209.02319,-85.63506 85.63507,-85.63505 85.63507,-209.02319 0,-123.38816 -85.63507,-209.0232 -85.63505,-85.63506 -209.02319,-85.63506 -123.38815,0 -209.0232,85.63506 -85.63506,85.63505 -85.63506,209.0232 0,123.38814 85.63506,209.02319 85.63505,85.63507 209.0232,85.63506 z m 0,-294.65825 z" />
</svg>
